<svg width="40" height="40" viewBox="0 0 40 40" fill="none" xmlns="http://www.w3.org/2000/svg">
<rect x="0.5" y="0.5" width="39" height="39" rx="9.5" fill="white" stroke="#C4C4C4"/>
<path d="M19.2767 21.8H14.4767V20.36H19.2767V15.56H20.7167V20.36H25.5167V21.8H20.7167V26.6H19.2767V21.8Z" fill="#00BFA5"/>
<path d="M19.2767 21.8H20.2767V20.8H19.2767V21.8ZM14.4767 21.8H13.4767V22.8H14.4767V21.8ZM14.4767 20.36V19.36H13.4767V20.36H14.4767ZM19.2767 20.36V21.36H20.2767V20.36H19.2767ZM19.2767 15.56V14.56H18.2767V15.56H19.2767ZM20.7167 15.56H21.7167V14.56H20.7167V15.56ZM20.7167 20.36H19.7167V21.36H20.7167V20.36ZM25.5167 20.36H26.5167V19.36H25.5167V20.36ZM25.5167 21.8V22.8H26.5167V21.8H25.5167ZM20.7167 21.8V20.8H19.7167V21.8H20.7167ZM20.7167 26.6V27.6H21.7167V26.6H20.7167ZM19.2767 26.6H18.2767V27.6H19.2767V26.6ZM19.2767 20.8H14.4767V22.8H19.2767V20.8ZM15.4767 21.8V20.36H13.4767V21.8H15.4767ZM14.4767 21.36H19.2767V19.36H14.4767V21.36ZM20.2767 20.36V15.56H18.2767V20.36H20.2767ZM19.2767 16.56H20.7167V14.56H19.2767V16.56ZM19.7167 15.56V20.36H21.7167V15.56H19.7167ZM20.7167 21.36H25.5167V19.36H20.7167V21.36ZM24.5167 20.36V21.8H26.5167V20.36H24.5167ZM25.5167 20.8H20.7167V22.8H25.5167V20.8ZM19.7167 21.8V26.6H21.7167V21.8H19.7167ZM20.7167 25.6H19.2767V27.6H20.7167V25.6ZM20.2767 26.6V21.8H18.2767V26.6H20.2767Z" fill="#00BFA5"/>
</svg>
