<svg width="40" height="41" viewBox="0 0 40 41" fill="none" xmlns="http://www.w3.org/2000/svg">
<rect x="0.5" y="1.47559" width="39" height="39" rx="9.5" fill="white" stroke="#C4C4C4"/>
<path d="M17.4434 21.8H23.5634V23.48H17.4434V21.8Z" fill="#00BFA5"/>
<path d="M17.4434 21.8V20.8H16.4434V21.8H17.4434ZM23.5634 21.8H24.5634V20.8H23.5634V21.8ZM23.5634 23.48V24.48H24.5634V23.48H23.5634ZM17.4434 23.48H16.4434V24.48H17.4434V23.48ZM17.4434 22.8H23.5634V20.8H17.4434V22.8ZM22.5634 21.8V23.48H24.5634V21.8H22.5634ZM23.5634 22.48H17.4434V24.48H23.5634V22.48ZM18.4434 23.48V21.8H16.4434V23.48H18.4434Z" fill="#00BFA5"/>
</svg>
